<?xml version="1.0" encoding="utf-8" standalone="no"?>
<!DOCTYPE svg PUBLIC "-//W3C//DTD SVG 1.1//EN"
  "http://www.w3.org/Graphics/SVG/1.1/DTD/svg11.dtd">
<svg xmlns:xlink="http://www.w3.org/1999/xlink" width="518.4pt" height="352.8pt" viewBox="0 0 518.4 352.8" xmlns="http://www.w3.org/2000/svg" version="1.1">
 <metadata>
  <rdf:RDF xmlns:dc="http://purl.org/dc/elements/1.1/" xmlns:cc="http://creativecommons.org/ns#" xmlns:rdf="http://www.w3.org/1999/02/22-rdf-syntax-ns#">
   <cc:Work>
    <dc:type rdf:resource="http://purl.org/dc/dcmitype/StillImage"/>
    <dc:format>image/svg+xml</dc:format>
    <dc:creator>
     <cc:Agent>
      <dc:title>Dendritic local learning vector schematic system</dc:title>
     </cc:Agent>
    </dc:creator>
   </cc:Work>
  </rdf:RDF>
 </metadata>
 <defs>
  <style type="text/css">*{stroke-linejoin: round; stroke-linecap: butt}</style>
 </defs>
 <g id="figure_1">
  <g id="patch_1">
   <path d="M 0 352.8 
L 518.4 352.8 
L 518.4 0 
L 0 0 
z
" style="fill: #ffffff"/>
  </g>
  <g id="axes_1">
   <g id="line2d_1">
    <path d="M 130.17024 83.2608 
L 403.91136 83.2608 
" clip-path="url(#p52d43d01dc)" style="fill: none; stroke: #e3e7ec; stroke-width: 0.7; stroke-linecap: round"/>
   </g>
   <g id="line2d_2">
    <path d="M 130.17024 91.728 
L 130.17024 83.2608 
" clip-path="url(#p52d43d01dc)" style="fill: none; stroke: #e3e7ec; stroke-width: 0.7; stroke-linecap: round"/>
   </g>
   <g id="line2d_3">
    <path d="M 403.91136 91.728 
L 403.91136 83.2608 
" clip-path="url(#p52d43d01dc)" style="fill: none; stroke: #e3e7ec; stroke-width: 0.7; stroke-linecap: round"/>
   </g>
   <g id="line2d_4">
    <path d="M 267.0408 291.102336 
L 267.0408 243.121536 
" clip-path="url(#p52d43d01dc)" style="fill: none; stroke: #3e8e63; stroke-width: 1.18; stroke-linecap: round"/>
   </g>
   <g id="line2d_5">
    <path d="M 267.0408 243.121536 
L 207.977674 204.736896 
" clip-path="url(#p52d43d01dc)" style="fill: none; stroke: #3e8e63; stroke-width: 0.9676; stroke-linecap: round"/>
   </g>
   <g id="line2d_6">
    <path d="M 267.0408 243.121536 
L 326.103926 208.57536 
" clip-path="url(#p52d43d01dc)" style="fill: none; stroke: #3e8e63; stroke-width: 0.9676; stroke-linecap: round"/>
   </g>
   <g id="line2d_7">
    <path d="M 207.977674 204.736896 
L 164.457475 172.109952 
" clip-path="url(#p52d43d01dc)" style="fill: none; stroke: #3e8e63; stroke-width: 0.7552; stroke-linecap: round"/>
   </g>
   <g id="line2d_8">
    <path d="M 207.977674 204.736896 
L 235.954944 154.836864 
" clip-path="url(#p52d43d01dc)" style="fill: none; stroke: #3e8e63; stroke-width: 0.7552; stroke-linecap: round"/>
   </g>
   <g id="line2d_9">
    <path d="M 326.103926 208.57536 
L 298.126656 158.675328 
" clip-path="url(#p52d43d01dc)" style="fill: none; stroke: #3e8e63; stroke-width: 0.7552; stroke-linecap: round"/>
   </g>
   <g id="line2d_10">
    <path d="M 326.103926 208.57536 
L 366.515539 177.867648 
" clip-path="url(#p52d43d01dc)" style="fill: none; stroke: #3e8e63; stroke-width: 0.7552; stroke-linecap: round"/>
   </g>
   <g id="line2d_11">
    <path d="M 164.457475 172.109952 
L 127.154448 145.240704 
" clip-path="url(#p52d43d01dc)" style="fill: none; stroke: #3e8e63; stroke-width: 0.5664; stroke-linecap: round"/>
   </g>
   <g id="line2d_12">
    <path d="M 164.457475 172.109952 
L 173.783232 120.290688 
" clip-path="url(#p52d43d01dc)" style="fill: none; stroke: #3e8e63; stroke-width: 0.5664; stroke-linecap: round"/>
   </g>
   <g id="line2d_13">
    <path d="M 235.954944 154.836864 
L 217.30343 108.775296 
" clip-path="url(#p52d43d01dc)" style="fill: none; stroke: #3e8e63; stroke-width: 0.5664; stroke-linecap: round"/>
   </g>
   <g id="line2d_14">
    <path d="M 235.954944 154.836864 
L 254.606458 106.856064 
" clip-path="url(#p52d43d01dc)" style="fill: none; stroke: #3e8e63; stroke-width: 0.5664; stroke-linecap: round"/>
   </g>
   <g id="line2d_15">
    <path d="M 298.126656 158.675328 
L 279.475142 108.775296 
" clip-path="url(#p52d43d01dc)" style="fill: none; stroke: #3e8e63; stroke-width: 0.5664; stroke-linecap: round"/>
   </g>
   <g id="line2d_16">
    <path d="M 298.126656 158.675328 
L 319.886755 114.532992 
" clip-path="url(#p52d43d01dc)" style="fill: none; stroke: #3e8e63; stroke-width: 0.5664; stroke-linecap: round"/>
   </g>
   <g id="line2d_17">
    <path d="M 366.515539 177.867648 
L 360.298368 127.967616 
" clip-path="url(#p52d43d01dc)" style="fill: none; stroke: #3e8e63; stroke-width: 0.5664; stroke-linecap: round"/>
   </g>
   <g id="line2d_18">
    <path d="M 366.515539 177.867648 
L 406.927152 154.836864 
" clip-path="url(#p52d43d01dc)" style="fill: none; stroke: #3e8e63; stroke-width: 0.5664; stroke-linecap: round"/>
   </g>
   <g id="text_1">
    <text style="font-size: 6.8px; font-family: 'Helvetica', 'Arial', 'Liberation Sans', 'DejaVu Sans', 'Bitstream Vera Sans', sans-serif; text-anchor: middle; fill: #69707a" x="267.0408" y="76.201812" transform="rotate(-0 267.0408 76.201812)">many synaptic parameters</text>
   </g>
   <g id="text_2">
    <text style="font-size: 6.8px; font-family: 'Helvetica', 'Arial', 'Liberation Sans', 'DejaVu Sans', 'Bitstream Vera Sans', sans-serif; text-anchor: middle; fill: #69707a" x="454.94784" y="307.163738" transform="rotate(-0 454.94784 307.163738)">one task error</text>
   </g>
   <g id="text_3">
    <text style="font-size: 8.8px; font-family: 'Helvetica', 'Arial', 'Liberation Sans', 'DejaVu Sans', 'Bitstream Vera Sans', sans-serif; text-anchor: start; fill: #232323" x="46.656" y="44.392" transform="rotate(-0 46.656 44.392)">One error, many updates</text>
   </g>
   <g id="patch_2">
    <path d="M 267.0408 246.52535 
C 268.524732 246.52535 269.948085 246.166703 270.997384 245.528396 
C 272.046682 244.890089 272.636254 244.024238 272.636254 243.121536 
C 272.636254 242.218834 272.046682 241.352983 270.997384 240.714676 
C 269.948085 240.076369 268.524732 239.717722 267.0408 239.717722 
C 265.556868 239.717722 264.133515 240.076369 263.084216 240.714676 
C 262.034918 241.352983 261.445346 242.218834 261.445346 243.121536 
C 261.445346 244.024238 262.034918 244.890089 263.084216 245.528396 
C 264.133515 246.166703 265.556868 246.52535 267.0408 246.52535 
z
" clip-path="url(#p52d43d01dc)" style="fill: #ffffff; stroke: #3e8e63; stroke-width: 0.7; stroke-linejoin: miter"/>
   </g>
   <g id="patch_3">
    <path d="M 207.977674 208.14071 
C 209.461605 208.14071 210.884959 207.782063 211.934257 207.143756 
C 212.983555 206.505449 213.573128 205.639598 213.573128 204.736896 
C 213.573128 203.834194 212.983555 202.968343 211.934257 202.330036 
C 210.884959 201.691729 209.461605 201.333082 207.977674 201.333082 
C 206.493742 201.333082 205.070388 201.691729 204.02109 202.330036 
C 202.971792 202.968343 202.38222 203.834194 202.38222 204.736896 
C 202.38222 205.639598 202.971792 206.505449 204.02109 207.143756 
C 205.070388 207.782063 206.493742 208.14071 207.977674 208.14071 
z
" clip-path="url(#p52d43d01dc)" style="fill: #ffffff; stroke: #3e8e63; stroke-width: 0.7; stroke-linejoin: miter"/>
   </g>
   <g id="patch_4">
    <path d="M 326.103926 211.979174 
C 327.587858 211.979174 329.011212 211.620527 330.06051 210.98222 
C 331.109808 210.343913 331.69938 209.478062 331.69938 208.57536 
C 331.69938 207.672658 331.109808 206.806807 330.06051 206.1685 
C 329.011212 205.530193 327.587858 205.171546 326.103926 205.171546 
C 324.619995 205.171546 323.196641 205.530193 322.147343 206.1685 
C 321.098045 206.806807 320.508472 207.672658 320.508472 208.57536 
C 320.508472 209.478062 321.098045 210.343913 322.147343 210.98222 
C 323.196641 211.620527 324.619995 211.979174 326.103926 211.979174 
z
" clip-path="url(#p52d43d01dc)" style="fill: #ffffff; stroke: #3e8e63; stroke-width: 0.7; stroke-linejoin: miter"/>
   </g>
   <g id="patch_5">
    <path d="M 164.457475 175.513766 
C 165.941407 175.513766 167.364761 175.155119 168.414059 174.516812 
C 169.463357 173.878505 170.052929 173.012654 170.052929 172.109952 
C 170.052929 171.20725 169.463357 170.341399 168.414059 169.703092 
C 167.364761 169.064785 165.941407 168.706138 164.457475 168.706138 
C 162.973543 168.706138 161.55019 169.064785 160.500892 169.703092 
C 159.451593 170.341399 158.862021 171.20725 158.862021 172.109952 
C 158.862021 173.012654 159.451593 173.878505 160.500892 174.516812 
C 161.55019 175.155119 162.973543 175.513766 164.457475 175.513766 
z
" clip-path="url(#p52d43d01dc)" style="fill: #ffffff; stroke: #3e8e63; stroke-width: 0.7; stroke-linejoin: miter"/>
   </g>
   <g id="patch_6">
    <path d="M 235.954944 158.240678 
C 237.438876 158.240678 238.862229 157.882031 239.911528 157.243724 
C 240.960826 156.605417 241.550398 155.739566 241.550398 154.836864 
C 241.550398 153.934162 240.960826 153.068311 239.911528 152.430004 
C 238.862229 151.791697 237.438876 151.43305 235.954944 151.43305 
C 234.471012 151.43305 233.047659 151.791697 231.99836 152.430004 
C 230.949062 153.068311 230.35949 153.934162 230.35949 154.836864 
C 230.35949 155.739566 230.949062 156.605417 231.99836 157.243724 
C 233.047659 157.882031 234.471012 158.240678 235.954944 158.240678 
z
" clip-path="url(#p52d43d01dc)" style="fill: #ffffff; stroke: #3e8e63; stroke-width: 0.7; stroke-linejoin: miter"/>
   </g>
   <g id="patch_7">
    <path d="M 298.126656 162.079142 
C 299.610588 162.079142 301.033941 161.720495 302.08324 161.082188 
C 303.132538 160.443881 303.72211 159.57803 303.72211 158.675328 
C 303.72211 157.772626 303.132538 156.906775 302.08324 156.268468 
C 301.033941 155.630161 299.610588 155.271514 298.126656 155.271514 
C 296.642724 155.271514 295.219371 155.630161 294.170072 156.268468 
C 293.120774 156.906775 292.531202 157.772626 292.531202 158.675328 
C 292.531202 159.57803 293.120774 160.443881 294.170072 161.082188 
C 295.219371 161.720495 296.642724 162.079142 298.126656 162.079142 
z
" clip-path="url(#p52d43d01dc)" style="fill: #ffffff; stroke: #3e8e63; stroke-width: 0.7; stroke-linejoin: miter"/>
   </g>
   <g id="patch_8">
    <path d="M 366.515539 181.271462 
C 367.999471 181.271462 369.422825 180.912815 370.472123 180.274508 
C 371.521421 179.636201 372.110993 178.77035 372.110993 177.867648 
C 372.110993 176.964946 371.521421 176.099095 370.472123 175.460788 
C 369.422825 174.822481 367.999471 174.463834 366.515539 174.463834 
C 365.031607 174.463834 363.608254 174.822481 362.558956 175.460788 
C 361.509657 176.099095 360.920085 176.964946 360.920085 177.867648 
C 360.920085 178.77035 361.509657 179.636201 362.558956 180.274508 
C 363.608254 180.912815 365.031607 181.271462 366.515539 181.271462 
z
" clip-path="url(#p52d43d01dc)" style="fill: #ffffff; stroke: #3e8e63; stroke-width: 0.7; stroke-linejoin: miter"/>
   </g>
   <g id="patch_9">
    <path d="M 267.0408 301.50288 
C 271.575036 301.50288 275.924172 300.407013 279.130361 298.456631 
C 282.33655 296.506249 284.138021 293.860593 284.138021 291.102336 
C 284.138021 288.344079 282.33655 285.698423 279.130361 283.748041 
C 275.924172 281.797659 271.575036 280.701792 267.0408 280.701792 
C 262.506564 280.701792 258.157428 281.797659 254.951239 283.748041 
C 251.74505 285.698423 249.943579 288.344079 249.943579 291.102336 
C 249.943579 293.860593 251.74505 296.506249 254.951239 298.456631 
C 258.157428 300.407013 262.506564 301.50288 267.0408 301.50288 
z
" clip-path="url(#p52d43d01dc)" style="fill: #e8873c; stroke: #55595e; stroke-width: 0.7; stroke-linejoin: miter"/>
   </g>
   <g id="patch_10">
    <path d="M 127.154448 147.888115 
C 128.308617 147.888115 129.41567 147.609167 130.231791 147.112706 
C 131.047912 146.616246 131.506468 145.942806 131.506468 145.240704 
C 131.506468 144.538602 131.047912 143.865162 130.231791 143.368702 
C 129.41567 142.872241 128.308617 142.593293 127.154448 142.593293 
C 126.000279 142.593293 124.893226 142.872241 124.077105 143.368702 
C 123.260984 143.865162 122.802428 144.538602 122.802428 145.240704 
C 122.802428 145.942806 123.260984 146.616246 124.077105 147.112706 
C 124.893226 147.609167 126.000279 147.888115 127.154448 147.888115 
z
" clip-path="url(#p52d43d01dc)" style="fill: #2c6cb0; stroke: #ffffff; stroke-width: 0.35; stroke-linejoin: miter"/>
   </g>
   <g id="patch_11">
    <path d="M 173.783232 122.938099 
C 174.937401 122.938099 176.044454 122.659151 176.860575 122.16269 
C 177.676696 121.66623 178.135252 120.99279 178.135252 120.290688 
C 178.135252 119.588586 177.676696 118.915146 176.860575 118.418686 
C 176.044454 117.922225 174.937401 117.643277 173.783232 117.643277 
C 172.629063 117.643277 171.52201 117.922225 170.705889 118.418686 
C 169.889768 118.915146 169.431212 119.588586 169.431212 120.290688 
C 169.431212 120.99279 169.889768 121.66623 170.705889 122.16269 
C 171.52201 122.659151 172.629063 122.938099 173.783232 122.938099 
z
" clip-path="url(#p52d43d01dc)" style="fill: #b13138; stroke: #ffffff; stroke-width: 0.35; stroke-linejoin: miter"/>
   </g>
   <g id="patch_12">
    <path d="M 217.30343 111.422707 
C 218.4576 111.422707 219.564652 111.143759 220.380773 110.647298 
C 221.196894 110.150838 221.65545 109.477398 221.65545 108.775296 
C 221.65545 108.073194 221.196894 107.399754 220.380773 106.903294 
C 219.564652 106.406833 218.4576 106.127885 217.30343 106.127885 
C 216.149261 106.127885 215.042208 106.406833 214.226088 106.903294 
C 213.409967 107.399754 212.951411 108.073194 212.951411 108.775296 
C 212.951411 109.477398 213.409967 110.150838 214.226088 110.647298 
C 215.042208 111.143759 216.149261 111.422707 217.30343 111.422707 
z
" clip-path="url(#p52d43d01dc)" style="fill: #2c6cb0; stroke: #ffffff; stroke-width: 0.35; stroke-linejoin: miter"/>
   </g>
   <g id="patch_13">
    <path d="M 254.606458 109.503475 
C 255.760627 109.503475 256.86768 109.224527 257.6838 108.728066 
C 258.499921 108.231606 258.958477 107.558166 258.958477 106.856064 
C 258.958477 106.153962 258.499921 105.480522 257.6838 104.984062 
C 256.86768 104.487601 255.760627 104.208653 254.606458 104.208653 
C 253.452288 104.208653 252.345236 104.487601 251.529115 104.984062 
C 250.712994 105.480522 250.254438 106.153962 250.254438 106.856064 
C 250.254438 107.558166 250.712994 108.231606 251.529115 108.728066 
C 252.345236 109.224527 253.452288 109.503475 254.606458 109.503475 
z
" clip-path="url(#p52d43d01dc)" style="fill: #2c6cb0; stroke: #ffffff; stroke-width: 0.35; stroke-linejoin: miter"/>
   </g>
   <g id="patch_14">
    <path d="M 279.475142 111.422707 
C 280.629312 111.422707 281.736364 111.143759 282.552485 110.647298 
C 283.368606 110.150838 283.827162 109.477398 283.827162 108.775296 
C 283.827162 108.073194 283.368606 107.399754 282.552485 106.903294 
C 281.736364 106.406833 280.629312 106.127885 279.475142 106.127885 
C 278.320973 106.127885 277.21392 106.406833 276.3978 106.903294 
C 275.581679 107.399754 275.123123 108.073194 275.123123 108.775296 
C 275.123123 109.477398 275.581679 110.150838 276.3978 110.647298 
C 277.21392 111.143759 278.320973 111.422707 279.475142 111.422707 
z
" clip-path="url(#p52d43d01dc)" style="fill: #2c6cb0; stroke: #ffffff; stroke-width: 0.35; stroke-linejoin: miter"/>
   </g>
   <g id="patch_15">
    <path d="M 319.886755 117.180403 
C 321.040924 117.180403 322.147977 116.901455 322.964098 116.404994 
C 323.780219 115.908534 324.238775 115.235094 324.238775 114.532992 
C 324.238775 113.83089 323.780219 113.15745 322.964098 112.66099 
C 322.147977 112.164529 321.040924 111.885581 319.886755 111.885581 
C 318.732586 111.885581 317.625533 112.164529 316.809412 112.66099 
C 315.993292 113.15745 315.534735 113.83089 315.534735 114.532992 
C 315.534735 115.235094 315.993292 115.908534 316.809412 116.404994 
C 317.625533 116.901455 318.732586 117.180403 319.886755 117.180403 
z
" clip-path="url(#p52d43d01dc)" style="fill: #2c6cb0; stroke: #ffffff; stroke-width: 0.35; stroke-linejoin: miter"/>
   </g>
   <g id="patch_16">
    <path d="M 360.298368 130.615027 
C 361.452537 130.615027 362.55959 130.336079 363.375711 129.839618 
C 364.191832 129.343158 364.650388 128.669718 364.650388 127.967616 
C 364.650388 127.265514 364.191832 126.592074 363.375711 126.095614 
C 362.55959 125.599153 361.452537 125.320205 360.298368 125.320205 
C 359.144199 125.320205 358.037146 125.599153 357.221025 126.095614 
C 356.404904 126.592074 355.946348 127.265514 355.946348 127.967616 
C 355.946348 128.669718 356.404904 129.343158 357.221025 129.839618 
C 358.037146 130.336079 359.144199 130.615027 360.298368 130.615027 
z
" clip-path="url(#p52d43d01dc)" style="fill: #b13138; stroke: #ffffff; stroke-width: 0.35; stroke-linejoin: miter"/>
   </g>
   <g id="patch_17">
    <path d="M 406.927152 157.484275 
C 408.081321 157.484275 409.188374 157.205327 410.004495 156.708866 
C 410.820616 156.212406 411.279172 155.538966 411.279172 154.836864 
C 411.279172 154.134762 410.820616 153.461322 410.004495 152.964862 
C 409.188374 152.468401 408.081321 152.189453 406.927152 152.189453 
C 405.772983 152.189453 404.66593 152.468401 403.849809 152.964862 
C 403.033688 153.461322 402.575132 154.134762 402.575132 154.836864 
C 402.575132 155.538966 403.033688 156.212406 403.849809 156.708866 
C 404.66593 157.205327 405.772983 157.484275 406.927152 157.484275 
z
" clip-path="url(#p52d43d01dc)" style="fill: #2c6cb0; stroke: #ffffff; stroke-width: 0.35; stroke-linejoin: miter"/>
   </g>
   <g id="patch_18">
    <path d="M 459.58752 290.7072 
C 466.355036 290.7072 472.846284 289.071578 477.631641 286.16056 
C 482.416997 283.249542 485.10576 279.300801 485.10576 275.184 
C 485.10576 271.067199 482.416997 267.118458 477.631641 264.20744 
C 472.846284 261.296422 466.355036 259.6608 459.58752 259.6608 
C 452.820004 259.6608 446.328756 261.296422 441.543399 264.20744 
C 436.758043 267.118458 434.06928 271.067199 434.06928 275.184 
C 434.06928 279.300801 436.758043 283.249542 441.543399 286.16056 
C 446.328756 289.071578 452.820004 290.7072 459.58752 290.7072 
z
" clip-path="url(#p52d43d01dc)" style="fill: #f8e8e5; stroke: #932f1e; stroke-width: 0.7; stroke-linejoin: miter"/>
   </g>
   <g id="text_4">
    <!-- $\mathcal{L}$ -->
    <g style="fill: #932f1e" transform="translate(457.06752 277.17075)">
     <text>
      <tspan x="0" y="-0.3125" style="font-style: italic; font-size: 7.2px; font-family: 'STIXNonUnicode'; fill: #932f1e"></tspan>
     </text>
    </g>
   </g>
   <g id="text_5">
    <text style="font-size: 7.2px; font-family: 'Helvetica', 'Arial', 'Liberation Sans', 'DejaVu Sans', 'Bitstream Vera Sans', sans-serif; text-anchor: middle; fill: #3fa26c" x="162.184032" y="107.600958" transform="rotate(-0 162.184032 107.600958)">+</text>
   </g>
   <g id="text_6">
    <text style="font-size: 7.2px; font-family: 'Helvetica', 'Arial', 'Liberation Sans', 'DejaVu Sans', 'Bitstream Vera Sans', sans-serif; text-anchor: middle; fill: #932f1e" x="286.434662" y="96.085566" transform="rotate(-0 286.434662 96.085566)">−</text>
   </g>
   <g id="text_7">
    <text style="font-size: 7.2px; font-family: 'Helvetica', 'Arial', 'Liberation Sans', 'DejaVu Sans', 'Bitstream Vera Sans', sans-serif; text-anchor: middle; fill: #8f66cd" x="416.206512" y="142.147134" transform="rotate(-0 416.206512 142.147134)">?</text>
   </g>
   <g id="patch_19">
    <path d="M 432.159204 275.76867 
Q 357.908832 298.300542 281.813902 291.395219 
" clip-path="url(#p52d43d01dc)" style="fill: none; stroke: #20509e; stroke-width: 1.25; stroke-linecap: round"/>
    <path d="M 286.701254 295.075974 
L 281.813902 291.395219 
L 287.283991 288.654361 
z
" clip-path="url(#p52d43d01dc)" style="fill: #20509e; stroke: #20509e; stroke-width: 1.25; stroke-linecap: round"/>
   </g>
  </g>
 </g>
 <defs>
  <clipPath id="p52d43d01dc">
   <rect x="46.656" y="49.392" width="463.968" height="282.24"/>
  </clipPath>
 </defs>
</svg>
